<svg width="46" height="46" viewBox="0 0 46 46" fill="none" xmlns="http://www.w3.org/2000/svg">
<g clip-path="url(#clip0_0_1)">
<path fill-rule="evenodd" clip-rule="evenodd" d="M30.0807 13.4487C30.2529 13.5482 30.3786 13.712 30.4301 13.9041C30.4816 14.0963 30.4546 14.301 30.3552 14.4732L30.0852 14.9409L31.9069 15.4615C34.1446 16.1016 36.0795 17.521 37.362 19.4632L37.4285 19.5639C38.4918 21.1746 40.0861 22.3614 41.9341 22.9181L44.9934 23.8391C45.1081 23.8738 45.2128 23.9354 45.2988 24.0188C45.3848 24.1022 45.4496 24.205 45.4877 24.3186C45.5258 24.4322 45.5361 24.5532 45.5178 24.6716C45.4995 24.79 45.4531 24.9023 45.3825 24.9991C43.3424 27.7885 41.6109 30.7909 40.2184 33.9537C40.1446 34.1214 40.0121 34.2563 39.8457 34.333C39.6793 34.4097 39.4907 34.4228 39.3153 34.3699L36.252 33.4477C34.0677 32.7901 32.1832 31.3875 30.9264 29.4839L30.8599 29.3831C29.7749 27.7397 28.1379 26.5386 26.2447 25.9969L24.0627 25.3722L21.3552 30.0617C21.2557 30.234 21.0919 30.3597 20.8998 30.4112C20.7077 30.4626 20.5029 30.4357 20.3307 30.3362C20.1584 30.2368 20.0327 30.073 19.9812 29.8808C19.9297 29.6887 19.9567 29.484 20.0562 29.3117L29.0562 13.7232C29.1054 13.638 29.171 13.5632 29.2491 13.5032C29.3272 13.4433 29.4164 13.3993 29.5116 13.3738C29.6067 13.3483 29.7059 13.3418 29.8036 13.3547C29.9012 13.3675 29.9954 13.3995 30.0807 13.4487Z" fill="black"/>
</g>
<g clip-path="url(#clip1_0_1)">
<path fill-rule="evenodd" clip-rule="evenodd" d="M16.9834 12.3072C16.8031 12.3913 16.6636 12.5435 16.5955 12.7304C16.5275 12.9173 16.5365 13.1236 16.6206 13.3039L16.8488 13.7933L14.9886 14.1532C12.7037 14.5958 10.6524 15.8411 9.20558 17.6641L9.13052 17.7587C7.93089 19.2705 6.2392 20.314 4.34977 20.7074L1.2218 21.3583C1.10452 21.3828 0.994826 21.4351 0.901888 21.5107C0.80895 21.5863 0.735476 21.6831 0.687617 21.7929C0.639757 21.9027 0.618906 22.0224 0.626808 22.142C0.63471 22.2615 0.671135 22.3774 0.733034 22.48C2.52229 25.4365 3.98554 28.5785 5.09711 31.8506C5.15594 32.0241 5.27623 32.1701 5.43529 32.2609C5.59434 32.3518 5.78116 32.3813 5.96049 32.3439L9.09252 31.6922C11.3257 31.2275 13.3253 29.9944 14.7433 28.2076L14.8184 28.1131C16.0424 26.5705 17.7779 25.5166 19.7111 25.1419L21.9392 24.7098L24.2277 29.6174C24.3118 29.7977 24.464 29.9372 24.6509 30.0052C24.8378 30.0733 25.0441 30.0643 25.2244 29.9802C25.4047 29.8961 25.5442 29.7439 25.6122 29.557C25.6802 29.3701 25.6712 29.1638 25.5872 28.9835L17.98 12.67C17.9384 12.5807 17.8796 12.5005 17.807 12.434C17.7344 12.3674 17.6494 12.3158 17.5568 12.2822C17.4643 12.2485 17.366 12.2333 17.2676 12.2376C17.1692 12.2419 17.0726 12.2656 16.9834 12.3072Z" fill="black"/>
</g>
<defs>
<clipPath id="clip0_0_1">
<rect width="24" height="24" fill="white" transform="translate(28.6074 10) rotate(30)"/>
</clipPath>
<clipPath id="clip1_0_1">
<rect width="24" height="24" fill="white" transform="matrix(-0.906308 0.422618 0.422618 0.906308 18.7515 9)"/>
</clipPath>
</defs>
</svg>
