<svg width="249" height="30" viewBox="0 0 249 30" fill="none" xmlns="http://www.w3.org/2000/svg">
<path d="M68.6062 28.2234C60.7143 28.9139 53.6324 29.2592 47.3604 29.2592C44.2244 29.2592 42.292 28.6239 41.5631 27.3532C40.8342 26.0826 41.2613 24.0937 42.8444 21.3867L50.5986 8.12761C52.2948 5.22719 54.2746 3.12784 56.5379 1.82956C58.8493 0.503652 61.685 -0.159301 65.045 -0.159301H82.325L78.9325 5.64154H63.5725C61.6525 5.64154 60.2079 6.47023 59.2386 8.12761L51.4844 21.3867C51.1129 22.022 51.022 22.533 51.2119 22.9197C51.4499 23.2788 51.9369 23.4584 52.6729 23.4584C56.3529 23.4584 59.7532 23.3893 62.874 23.2512L66.3876 17.2432H60.1476L63.0554 12.2711H77.9354L68.6062 28.2234ZM79.0521 28.8449H69.6921L99.3744 -0.159301H108.974L104.732 28.8449H95.3721L96.2411 23.6656H84.2411L79.0521 28.8449ZM89.5512 18.2791H97.2312L99.0857 8.54195L89.5512 18.2791ZM124.092 -0.159301H144.252C147.612 -0.159301 149.657 0.503652 150.385 1.82956C151.162 3.12784 150.702 5.22719 149.006 8.12761L146.583 12.2711C144.887 15.1715 142.883 17.2846 140.571 18.6105C138.308 19.9088 135.497 20.558 132.137 20.558H120.617L115.77 28.8449H107.13L124.092 -0.159301ZM140.366 8.12761C141.335 6.47023 140.86 5.64154 138.94 5.64154H129.34L124.009 14.7571H133.609C135.529 14.7571 136.974 13.9284 137.943 12.2711L140.366 8.12761ZM176.891 -0.159301C180.507 -0.159301 182.766 0.655578 183.669 2.28534C184.62 3.88747 184.183 6.24924 182.357 9.37064L176.542 19.3149C174.716 22.4363 172.383 24.8119 169.542 26.4417C166.749 28.0438 163.544 28.8449 159.928 28.8449H141.208L158.171 -0.159301H176.891ZM173.717 9.37064C175.171 6.88457 174.458 5.64154 171.578 5.64154H163.418L153.241 23.044H161.401C164.281 23.044 166.448 21.801 167.902 19.3149L173.717 9.37064ZM187.788 23.044H205.308L201.915 28.8449H175.755L192.717 -0.159301H201.357L187.788 23.044ZM231.926 28.8449H205.286L222.249 -0.159301H248.889L245.496 5.64154H227.496L224.225 11.2352H238.385L234.993 17.036H220.833L217.319 23.044H235.319L231.926 28.8449Z" fill="black"/>
<line x1="47" y1="2" y2="2" stroke="#FF0000"/>
<path d="M44 6L-1.43051e-06 6" stroke="#FF0000"/>
<path d="M40 14L-1.13249e-06 14" stroke="#FF0000"/>
<path d="M38 18L1.43051e-06 18" stroke="#FF0000"/>
<path d="M36 22L-5.96046e-07 22" stroke="#FF0000"/>
<path d="M33 26L-4.17233e-07 26" stroke="#FF0000"/>
<path d="M42 10L-1.2517e-06 10" stroke="#FF0000"/>
</svg>
